# xmcd
#
# Track frame offsets:
#	150
#	19774
#	33703
#	53029
#	72318
#	85763
#	100903
#	108739
#	128149
#	146416
#	164966
#	187510
#	196364
#	216576
#
# Disc length: 3146 seconds
#
# Revision: 0
# Processed by: cddbd v1.5.1PL2 Copyright (c) Steve Scherf et al.
# Submitted via: audiograbber 1.83.01
#
DISCID=ce0c480e
DTITLE=Various Artist - Peace From The Porch Vol.1
DYEAR=2004
DGENRE=Country
TTITLE0=Bear Creek Ensemble - Affirmation
TTITLE1=Erica luckett - Kindness
TTITLE2=Ken Gaines - Shadow On The Wall
TTITLE3=Jean Synodinos - Gospel According To John
TTITLE4=Back At The Ranch - Bar-B-Que
TTITLE5=Lucky Boyd - My Baby's In El Paso
TTITLE6=Rene Lawrence - Transcontinental Breakdown
TTITLE7=Donnie Blanz - Buffalo Robe
TTITLE8=Back At The Ranch - Old Mexico
TTITLE9=Ken Gaines - Real Men
TTITLE10=Jean Synodinos - Lucky
TTITLE11=Rene Lawrence - Interstate Rag
TTITLE12=Donnie Blanz - I Will Go
TTITLE13=Bear Creek Ensemble - There Will Be Peace
EXTD=
EXTT0=
EXTT1=
EXTT2=
EXTT3=
EXTT4=
EXTT5=
EXTT6=
EXTT7=
EXTT8=
EXTT9=
EXTT10=
EXTT11=
EXTT12=
EXTT13=
PLAYORDER=
